<svg version="1.1" xmlns="http://www.w3.org/2000/svg" viewBox="0 0 621.6666564941406 257.5802871416323" width="621.6666564941406" height="257.5802871416323">
  <!-- svg-source:excalidraw -->
  
  <defs>
    <style class="style-fonts">
      @font-face {
        font-family: "Virgil";
        src: url("https://file%2B.vscode-resource.vscode-cdn.net/home/nahidhk/.vscode/extensions/pomdtr.excalidraw-editor-3.7.4/public//dist/excalidraw-assets/Virgil.woff2");
      }
      @font-face {
        font-family: "Cascadia";
        src: url("https://file%2B.vscode-resource.vscode-cdn.net/home/nahidhk/.vscode/extensions/pomdtr.excalidraw-editor-3.7.4/public//dist/excalidraw-assets/Cascadia.woff2");
      }
      @font-face {
        font-family: "Assistant";
        src: url("https://file%2B.vscode-resource.vscode-cdn.net/home/nahidhk/.vscode/extensions/pomdtr.excalidraw-editor-3.7.4/public//dist/excalidraw-assets/Assistant-Regular.woff2");
      }
    </style>
    
  </defs>
  <g stroke-linecap="round" transform="translate(10 47.58028714163228) rotate(0 300.8333282470703 100)"><path d="M32 0 C191.56 0.89, 349.69 -0.21, 569.67 0 M32 0 C141.4 -0.69, 250.48 -0.34, 569.67 0 M569.67 0 C590.71 -1.82, 603.55 8.93, 601.67 32 M569.67 0 C590.71 -0.38, 599.85 10.82, 601.67 32 M601.67 32 C599.86 65.82, 600.98 98.79, 601.67 168 M601.67 32 C601.37 82.62, 601.21 135.34, 601.67 168 M601.67 168 C600.06 191.28, 592.25 201.46, 569.67 200 M601.67 168 C603.2 190.43, 592.38 198.32, 569.67 200 M569.67 200 C391.9 201, 213.54 200.7, 32 200 M569.67 200 C416.68 201.85, 264.28 201.68, 32 200 M32 200 C9.34 199.08, -2 187.38, 0 168 M32 200 C10.36 202.25, -1.14 189.48, 0 168 M0 168 C0.06 117.95, -1.46 65.5, 0 32 M0 168 C1.15 126.4, 1.93 85.71, 0 32 M0 32 C-1.32 12.64, 8.98 -0.31, 32 0 M0 32 C-0.5 12.05, 12.11 2.26, 32 0" stroke="#1e1e1e" stroke-width="2" fill="none"></path></g><g transform="translate(216.51568603515625 124.10373227102681) rotate(0 44.27996063232422 25)"><text x="0" y="0" font-family="Virgil, Segoe UI Emoji" font-size="20px" fill="#1e1e1e" text-anchor="start" style="white-space: pre;" direction="ltr" dominant-baseline="text-before-edge">IC NO X1</text><text x="0" y="25" font-family="Virgil, Segoe UI Emoji" font-size="20px" fill="#1e1e1e" text-anchor="start" style="white-space: pre;" direction="ltr" dominant-baseline="text-before-edge">1234D45</text></g><g stroke-linecap="round"><g transform="translate(78.35943603515625 47.61934201223775) rotate(0 0.6640625 -18.587242126464844)"><path d="M0.3 -0.05 C0.53 -6.28, 1.01 -31.46, 1.26 -37.62 M-0.21 -0.55 C-0.05 -6.71, 0.48 -30.91, 0.8 -37.15" stroke="#1e1e1e" stroke-width="2" fill="none"></path></g></g><mask></mask></svg>